<?xml version="1.0" encoding="UTF-8"?>
<svg xmlns="http://www.w3.org/2000/svg" width="100" height="30" viewBox="0 0 100 30">
  <path d="M14.3 8.2c-1.2 0-2.2 1-2.2 2.2v9.2c0 1.2 1 2.2 2.2 2.2h4.4c3.3 0 6-2.7 6-6s-2.7-6-6-6h-4.4zm4.4 11.4h-2.2v-7h2.2c1.9 0 3.5 1.6 3.5 3.5s-1.6 3.5-3.5 3.5z" fill="#00AED9"/>
  <path d="M38.5 8.2h-2.2l-6.6 13.6h2.6l1.3-2.6h7.5l1.3 2.6h2.6L38.5 8.2zm-3.7 8.8l2.6-5.3 2.6 5.3h-5.2z" fill="#00AED9"/>
  <path d="M55.5 8.2c-3.3 0-6 2.7-6 6s2.7 6 6 6 6-2.7 6-6-2.7-6-6-6zm0 9.6c-2 0-3.6-1.6-3.6-3.6s1.6-3.6 3.6-3.6 3.6 1.6 3.6 3.6-1.6 3.6-3.6 3.6z" fill="#00AED9"/>
  <path d="M77.7 8.2h-2.2v13.6h2.2V8.2z" fill="#00AED9"/>
  <path d="M89.9 8.2c-3.3 0-6 2.7-6 6s2.7 6 6 6c1.6 0 3.1-0.6 4.2-1.7l-1.6-1.6c-0.7 0.7-1.6 1.1-2.6 1.1-2 0-3.6-1.6-3.6-3.6s1.6-3.6 3.6-3.6c1 0 1.9 0.4 2.6 1.1l1.6-1.6c-1.1-1.1-2.6-1.7-4.2-1.7z" fill="#00AED9"/>
</svg>
