<?xml version="1.0" encoding="UTF-8"?>
<svg xmlns="http://www.w3.org/2000/svg" width="100" height="30" viewBox="0 0 100 30">
  <path d="M15 5c5.5 0 10 4.5 10 10s-4.5 10-10 10S5 20.5 5 15 9.5 5 15 5zm0 4c-3.3 0-6 2.7-6 6s2.7 6 6 6 6-2.7 6-6-2.7-6-6-6z" fill="#4A4A4A"/>
  <path d="M35 8l-5 14h3l1-3h4l1 3h3l-5-14h-2zm-0.5 8l1.5-4.5L37.5 16h-3z" fill="#4A4A4A"/>
  <path d="M45 8v14h3V8h-3z" fill="#4A4A4A"/>
  <path d="M60 8l-3 5-3-5h-3l4.5 7-4.5 7h3l3-5 3 5h3l-4.5-7L63 8h-3z" fill="#4A4A4A"/>
  <path d="M75 8v14h8v-3h-5V8h-3z" fill="#4A4A4A"/>
</svg>
