<?xml version="1.0" encoding="UTF-8"?>
<svg xmlns="http://www.w3.org/2000/svg" width="100" height="30" viewBox="0 0 100 30">
  <path d="M20.5 6.2L15.2 15l5.3 8.8h-3.9l-3.4-5.6-3.4 5.6H6l5.3-8.8L6 6.2h3.9l3.4 5.6 3.4-5.6h3.8z" fill="#63A541"/>
  <path d="M34.5 6.2v2.9h-4.8v14.7h-3.5V9.1h-4.8V6.2h13.1z" fill="#63A541"/>
  <path d="M47.5 6.2v2.9h-8.2v3h7.6v2.9h-7.6v5.9h8.2v2.9H35.8V6.2h11.7z" fill="#63A541"/>
  <path d="M61.5 6.2v17.6H58V15l-5.3 8.8h-0.4L47 15v8.8h-3.5V6.2h3.9l5.1 8.5 5.1-8.5h3.9z" fill="#63A541"/>
</svg>
