<?xml version="1.0" encoding="UTF-8"?>
<svg xmlns="http://www.w3.org/2000/svg" width="100" height="30" viewBox="0 0 100 30">
  <path d="M15 5c5.523 0 10 4.477 10 10s-4.477 10-10 10S5 20.523 5 15 9.477 5 15 5zm0 3c-3.866 0-7 3.134-7 7s3.134 7 7 7 7-3.134 7-7-3.134-7-7-7z" fill="#1D508D"/>
  <path d="M35 8.5h4v13h-4v-1.5c-.8 1.2-2.1 1.8-3.7 1.8-3.3 0-5.8-2.7-5.8-6.7 0-4 2.5-6.7 5.8-6.7 1.6 0 2.9.7 3.7 1.8V8.5zm-3.2 10.2c1.8 0 3.2-1.4 3.2-3.6s-1.4-3.6-3.2-3.6c-1.8 0-3.2 1.4-3.2 3.6s1.4 3.6 3.2 3.6zm12.7-10.2h4v13h-4V8.5zm0-4h4v2.5h-4V4.5zm12.7 4h4v13h-4v-1.5c-.8 1.2-2.1 1.8-3.7 1.8-3.3 0-5.8-2.7-5.8-6.7 0-4 2.5-6.7 5.8-6.7 1.6 0 2.9.7 3.7 1.8V8.5zm-3.2 10.2c1.8 0 3.2-1.4 3.2-3.6s-1.4-3.6-3.2-3.6c-1.8 0-3.2 1.4-3.2 3.6s1.4 3.6 3.2 3.6z" fill="#1D508D"/>
  <path d="M70 8.5h4v13h-4V8.5zm0-4h4v2.5h-4V4.5zm12.7 4h4v13h-4v-1.5c-.8 1.2-2.1 1.8-3.7 1.8-3.3 0-5.8-2.7-5.8-6.7 0-4 2.5-6.7 5.8-6.7 1.6 0 2.9.7 3.7 1.8V8.5z" fill="#1D508D"/>
</svg>
