<?xml version="1.0" encoding="UTF-8"?>
<svg width="100" height="30" viewBox="0 0 100 30" xmlns="http://www.w3.org/2000/svg">
  <path d="M27.2 0c-1.4 0-2.6 1.2-2.6 2.6s1.2 2.6 2.6 2.6 2.6-1.2 2.6-2.6S28.6 0 27.2 0m-5.2 5.2c-1.4 0-2.6 1.2-2.6 2.6v6.5c0 1.4 1.2 2.6 2.6 2.6s2.6-1.2 2.6-2.6V7.8c0-1.4-1.2-2.6-2.6-2.6" fill="#E01E5A"/>
  <path d="M13.9 22c-1.4 0-2.6 1.2-2.6 2.6s1.2 2.6 2.6 2.6 2.6-1.2 2.6-2.6-1.2-2.6-2.6-2.6m0-5.2c-1.4 0-2.6 1.2-2.6 2.6v6.5c0 1.4 1.2 2.6 2.6 2.6s2.6-1.2 2.6-2.6v-6.5c0-1.4-1.2-2.6-2.6-2.6" fill="#36C5F0"/>
  <path d="M0 13.9c0-1.4 1.2-2.6 2.6-2.6s2.6 1.2 2.6 2.6-1.2 2.6-2.6 2.6-2.6-1.2-2.6-2.6m5.2 0c0-1.4 1.2-2.6 2.6-2.6h6.5c1.4 0 2.6 1.2 2.6 2.6s-1.2 2.6-2.6 2.6H7.8c-1.4 0-2.6-1.2-2.6-2.6" fill="#2EB67D"/>
  <path d="M22 0c0 1.4-1.2 2.6-2.6 2.6s-2.6-1.2-2.6-2.6S18 0 19.4 0s2.6 1.2 2.6 2.6m0 5.2c0 1.4-1.2 2.6-2.6 2.6h-6.5c-1.4 0-2.6-1.2-2.6-2.6s1.2-2.6 2.6-2.6h6.5c1.4 0 2.6 1.2 2.6 2.6" fill="#ECB22E"/>
  <path d="M40 10.5h2.4v7.9c0 2.9 1.5 4.5 4.2 4.5 2.2 0 3.8-1.3 3.8-3.7V10.5h2.4v12.8h-2.4v-1.8c-1 1.3-2.5 2.1-4.3 2.1-3.6 0-5.7-2.3-5.7-6.2v-6.9zm21.6 0v2.1c-1-1.4-2.5-2.3-4.4-2.3-3.4 0-6 2.9-6 6.6 0 3.8 2.6 6.6 6 6.6 1.9 0 3.4-0.9 4.4-2.3v2.1h2.4V10.5h-2.4zm-3.9 11c-2.4 0-4.1-1.9-4.1-4.5s1.7-4.5 4.1-4.5c2.4 0 4.1 1.9 4.1 4.5s-1.7 4.5-4.1 4.5zm11.3-14.8c0.9 0 1.6 0.7 1.6 1.6s-0.7 1.6-1.6 1.6-1.6-0.7-1.6-1.6 0.7-1.6 1.6-1.6zm-1.2 3.8h2.4v12.8h-2.4V10.5zm5.8 0h2.4v7.9c0 2.9 1.5 4.5 4.2 4.5 2.2 0 3.8-1.3 3.8-3.7V10.5h2.4v12.8h-2.4v-1.8c-1 1.3-2.5 2.1-4.3 2.1-3.6 0-5.7-2.3-5.7-6.2v-6.9zm21.6 0v2.1c-1-1.4-2.5-2.3-4.4-2.3-3.4 0-6 2.9-6 6.6 0 3.8 2.6 6.6 6 6.6 1.9 0 3.4-0.9 4.4-2.3v2.1h2.4V10.5h-2.4zm-3.9 11c-2.4 0-4.1-1.9-4.1-4.5s1.7-4.5 4.1-4.5c2.4 0 4.1 1.9 4.1 4.5s-1.7 4.5-4.1 4.5z" fill="#000000"/>
</svg>
